<svg xmlns="http://www.w3.org/2000/svg" width="150" height="150" viewBox="0 0 150 150" version="1.1">
	<path d="M 22 41 L 22 47 11 47 L 0 47 0 49.500 L 0 52 11 52 L 22 52 22 58.500 L 22 65 75 65 L 128 65 128 59 L 128 53 138.893 53 C 150.299 53, 150.997 52.722, 151.002 48.168 C 151.004 46.689, 149.699 46.535, 139.502 46.811 L 128 47.121 128 41.061 L 128 35 75 35 L 22 35 22 41 M 28 50 L 28 60 75 60 L 122 60 122 50 L 122 40 75 40 L 28 40 28 50 M 0.195 49.500 C 0.215 51.150, 0.439 51.704, 0.693 50.731 C 0.947 49.758, 0.930 48.408, 0.656 47.731 C 0.382 47.054, 0.175 47.850, 0.195 49.500 M 72 72.500 C 72 74.500, 72.500 75, 74.500 75 C 76.500 75, 77 74.500, 77 72.500 C 77 70.500, 76.500 70, 74.500 70 C 72.500 70, 72 70.500, 72 72.500 M 72 82.500 C 72 84.500, 72.500 85, 74.500 85 C 76.500 85, 77 84.500, 77 82.500 C 77 80.500, 76.500 80, 74.500 80 C 72.500 80, 72 80.500, 72 82.500 M 72 92.500 C 72 94.500, 72.500 95, 74.500 95 C 76.500 95, 77 94.500, 77 92.500 C 77 90.500, 76.500 90, 74.500 90 C 72.500 90, 72 90.500, 72 92.500 M 26.869 92.469 C 25.421 93.278, 23.973 94.628, 23.650 95.470 C 23.170 96.721, 20.960 97, 11.531 97 L 0 97 0 99.500 L 0 102 11.433 102 C 22.008 102, 22.913 102.151, 23.503 104.011 C 23.855 105.117, 25.533 106.741, 27.233 107.621 C 29.737 108.915, 31.020 109.011, 33.984 108.123 C 37.567 107.049, 38.270 107.361, 67.846 123.116 C 92.685 136.347, 98.311 138.987, 99.524 137.980 C 100.336 137.306, 101 136.390, 101 135.945 C 101 135.499, 95.793 132.357, 89.428 128.962 C 83.064 125.567, 77.615 122.162, 77.321 121.395 C 77.027 120.628, 75.865 120, 74.739 120 C 73.613 120, 65.336 116.091, 56.346 111.313 C 41.271 103.301, 40 102.411, 40 99.869 C 40 93.780, 32.294 89.438, 26.869 92.469 M 29.250 96.662 C 27.482 97.376, 27.697 101.504, 29.584 103.070 C 32.701 105.657, 36.608 100.642, 33.960 97.452 C 32.732 95.972, 31.480 95.762, 29.250 96.662 M 94 99.645 C 94 102.012, 98.749 110.996, 100 110.996 C 100.275 110.996, 101.779 108.972, 103.342 106.498 L 106.184 102 128.092 102 L 150 102 150 99.500 L 150 97 122 97 L 94 97 94 99.645 M 72 102.500 C 72 104.500, 72.500 105, 74.500 105 C 76.500 105, 77 104.500, 77 102.500 C 77 100.500, 76.500 100, 74.500 100 C 72.500 100, 72 100.500, 72 102.500 M 72 112.500 C 72 114.500, 72.500 115, 74.500 115 C 76.500 115, 77 114.500, 77 112.500 C 77 110.500, 76.500 110, 74.500 110 C 72.500 110, 72 110.500, 72 112.500" stroke="none" fill="#000000" fill-rule="evenodd"/>
</svg>